<svg xmlns="http://www.w3.org/2000/svg" viewBox="61.78 113.364 831.587 140.245">
  <g transform="matrix(0.834, 0, 0, 0.834, 60.513035, 113.35498)">
    <svg xmlns="http://www.w3.org/2000/svg" viewBox="0 0 356 60" data-background-color="#ffffff" preserveAspectRatio="xMidYMid meet" height="168" width="1000">
      <g id="tight-bounds" transform="matrix(1,0,0,1,-0.06049999999996203,-0.14699999999999136)">
        <svg viewBox="0 0 356.12052 60.29396895964864" height="60.29396895964864" width="356.12052">
          <g>
            <svg viewBox="0 0 356.12052 60.29396895964864" height="60.29396895964864" width="356.12052">
              <g>
                <svg viewBox="0 0 356.12052 60.29396895964864" height="60.29396895964864" width="356.12052">
                  <g>
                    <path d="M0 60.294v-60.294h356.121v60.294z" fill="#f9cc0b" stroke="transparent" stroke-width="0" rx="0%" data-fill-palette-color="tertiary"/>
                    <path d="M3.283 57.011v-53.728h349.554v53.728z" fill="#0c1d36" stroke="transparent" stroke-width="0" rx="0%" data-fill-palette-color="quaternary"/>
                    <path d="M9.85 50.444v-40.594h336.421v40.594z" fill="#f9cc0b" stroke="transparent" stroke-width="0" data-fill-palette-color="tertiary"/>
                  </g>
                  <g transform="matrix(1,0,0,1,19.69974,19.69974)" id="textblocktransform">
                    <svg viewBox="0 0 316.72104 20.89448895964864" height="20.89448895964864" width="316.72104" id="textblock">
                      <g>
                        <svg viewBox="0 0 316.72104 20.89448895964864" height="20.89448895964864" width="316.72104">
                          <g transform="matrix(1,0,0,1,0,0)">
                            <svg width="316.72104" viewBox="2.049999952316284 -35.54999923706055 546.4000244140625 36.04999923706055" height="20.89448895964864" data-palette-color="#0c1d36">
                              <path d="M25.05-15.45L25.05-15.45 25.05-19.15Q25.05-28.3 24.15-30.7L24.15-30.7Q23.15-33.45 21.3-34.1L21.3-34.1Q20.25-34.5 18.75-34.5 17.25-34.5 16.18-34.1 15.1-33.7 14.4-32.7 13.7-31.7 13.28-30.6 12.85-29.5 12.6-27.5L12.6-27.5Q12.3-24.6 12.3-18.95L12.3-18.95 12.3-15.35Q12.3-9.25 12.78-6.68 13.25-4.1 13.95-3L13.95-3Q15.5-0.55 18.75-0.55L18.75-0.55Q22.7-0.55 23.88-3.88 25.05-7.2 25.05-15.45ZM18.65 0.5Q10.3 0.5 6.18-4.03 2.05-8.55 2.05-17.13 2.05-25.7 6.48-30.63 10.9-35.55 19-35.55 27.1-35.55 31.23-30.88 35.35-26.2 35.35-17.6 35.35-9 31.18-4.25 27 0.5 18.65 0.5ZM53.15-0.55L53.15-0.55Q55.65-0.55 57.57-1.9 59.5-3.25 59.5-5.98 59.5-8.7 57.42-10.15 55.35-11.6 51.52-12.68 47.7-13.75 45.97-14.55 44.25-15.35 42.7-16.65L42.7-16.65Q39.6-19.25 39.6-24.7L39.6-24.7Q39.6-29.15 42.77-32.35 45.95-35.55 51.45-35.55L51.45-35.55Q54.1-35.55 56.97-34.77 59.85-34 60.55-34 61.25-34 61.8-35L61.8-35 62.35-35 62.7-24.9 61.9-24.9Q59.5-29.25 56.87-31.88 54.25-34.5 51.17-34.5 48.1-34.5 46.4-33.08 44.7-31.65 44.7-29.28 44.7-26.9 46.72-25.63 48.75-24.35 51.7-23.55 54.65-22.75 55.57-22.45 56.5-22.15 57.87-21.63 59.25-21.1 60.12-20.53 61-19.95 61.97-19.07 62.95-18.2 63.5-17.15L63.5-17.15Q64.85-14.75 64.85-11.45L64.85-11.45Q64.85-6.05 61.47-2.78 58.1 0.5 52.6 0.5L52.6 0.5Q49.75 0.5 46.07-0.25 42.4-1 42-1L42-1Q41.3-1 40.65 0.5L40.65 0.5 39.95 0.5 39.45-11.4 40.3-11.4Q42.5-7.05 45.92-3.8 49.35-0.55 53.15-0.55ZM82.15-0.55L82.15-0.55Q84.65-0.55 86.57-1.9 88.5-3.25 88.5-5.98 88.5-8.7 86.42-10.15 84.35-11.6 80.52-12.68 76.7-13.75 74.97-14.55 73.25-15.35 71.7-16.65L71.7-16.65Q68.6-19.25 68.6-24.7L68.6-24.7Q68.6-29.15 71.77-32.35 74.95-35.55 80.45-35.55L80.45-35.55Q83.1-35.55 85.97-34.77 88.85-34 89.55-34 90.25-34 90.8-35L90.8-35 91.35-35 91.7-24.9 90.9-24.9Q88.5-29.25 85.87-31.88 83.25-34.5 80.17-34.5 77.1-34.5 75.4-33.08 73.7-31.65 73.7-29.28 73.7-26.9 75.72-25.63 77.75-24.35 80.7-23.55 83.65-22.75 84.57-22.45 85.5-22.15 86.87-21.63 88.25-21.1 89.12-20.53 90-19.95 90.97-19.07 91.95-18.2 92.5-17.15L92.5-17.15Q93.85-14.75 93.85-11.45L93.85-11.45Q93.85-6.05 90.47-2.78 87.1 0.5 81.6 0.5L81.6 0.5Q78.75 0.5 75.07-0.25 71.4-1 71-1L71-1Q70.3-1 69.65 0.5L69.65 0.5 68.95 0.5 68.45-11.4 69.3-11.4Q71.5-7.05 74.92-3.8 78.35-0.55 82.15-0.55ZM105.94-33.9L105.94-35 123.94-35 123.94-33.9 118.64-33.9 118.64-1.1 120.44-1.1Q124.69-1.1 127.22-3.7 129.74-6.3 132.34-11.7L132.34-11.7 133.39-11.7 132.44 0 105.94 0 105.94-1.1 108.89-1.1 108.89-33.9 105.94-33.9ZM135.94-34.05L135.94-35 151.19-35 151.19-34.05 148.44-34.05 148.44-0.95 151.19-0.95 151.19 0 135.94 0 135.94-0.95 138.69-0.95 138.69-34.05 135.94-34.05ZM172.44-34.55L172.44-34.55Q164.69-34.55 164.69-19.6L164.69-19.6 164.69-15.65Q164.69-8.55 166.74-4.53 168.79-0.5 172.79-0.5L172.79-0.5Q178.29-0.5 182.89-11.2L182.89-11.2 183.79-11.2 183.44-0.05 182.89-0.05Q182.59-0.6 182.34-0.83 182.09-1.05 181.61-1.05 181.14-1.05 177.99-0.28 174.84 0.5 171.59 0.5L171.59 0.5Q163.44 0.5 158.96-3.9 154.49-8.3 154.49-17.13 154.49-25.95 159.16-30.75 163.84-35.55 171.74-35.55L171.74-35.55Q174.79-35.55 177.71-34.77 180.64-34 181.14-34 181.64-34 181.89-34.23 182.14-34.45 182.44-35L182.44-35 182.99-35 183.39-24.15 182.49-24.15Q180.24-29.2 177.86-31.88 175.49-34.55 172.44-34.55ZM187.98-33.9L187.98-35 213.98-35 214.48-25.1 213.58-25.1Q211.48-30.15 209.18-32.02 206.88-33.9 202.43-33.9L202.43-33.9 200.68-33.9 200.68-18.45 202.38-18.45Q204.73-18.45 206.33-20.23 207.93-22 208.58-25L208.58-25 209.33-25 209.33-10.2 208.48-10.2Q207.58-13.95 206.06-15.55 204.53-17.15 201.88-17.15L201.88-17.15 200.68-17.15 200.68-1.1 202.58-1.1Q207.18-1.1 210.41-3.85 213.63-6.6 214.83-10.9L214.83-10.9 215.83-10.9 215.43 0 187.98 0 187.98-1.1 190.93-1.1 190.93-33.9 187.98-33.9ZM250.38-34.05L247.63-34.05 247.63 0 240.63 0 223.48-32.35 223.48-0.95 226.23-0.95 226.23 0 219.38 0 219.38-0.95 222.13-0.95 222.13-34.05 219.38-34.05 219.38-35 233.18-35 246.28-9.9 246.28-34.05 243.53-34.05 243.53-35 250.38-35 250.38-34.05ZM267.88-0.55L267.88-0.55Q270.38-0.55 272.3-1.9 274.23-3.25 274.23-5.98 274.23-8.7 272.15-10.15 270.08-11.6 266.25-12.68 262.43-13.75 260.7-14.55 258.98-15.35 257.43-16.65L257.43-16.65Q254.33-19.25 254.33-24.7L254.33-24.7Q254.33-29.15 257.5-32.35 260.68-35.55 266.18-35.55L266.18-35.55Q268.83-35.55 271.7-34.77 274.58-34 275.28-34 275.98-34 276.53-35L276.53-35 277.08-35 277.43-24.9 276.63-24.9Q274.23-29.25 271.6-31.88 268.98-34.5 265.9-34.5 262.83-34.5 261.13-33.08 259.43-31.65 259.43-29.28 259.43-26.9 261.45-25.63 263.48-24.35 266.43-23.55 269.38-22.75 270.3-22.45 271.23-22.15 272.6-21.63 273.98-21.1 274.85-20.53 275.73-19.95 276.7-19.07 277.68-18.2 278.23-17.15L278.23-17.15Q279.58-14.75 279.58-11.45L279.58-11.45Q279.58-6.05 276.2-2.78 272.83 0.5 267.33 0.5L267.33 0.5Q264.48 0.5 260.8-0.25 257.13-1 256.73-1L256.73-1Q256.03-1 255.38 0.5L255.38 0.5 254.68 0.5 254.18-11.4 255.03-11.4Q257.23-7.05 260.65-3.8 264.08-0.55 267.88-0.55ZM282.68-33.9L282.68-35 308.68-35 309.18-25.1 308.28-25.1Q306.18-30.15 303.88-32.02 301.58-33.9 297.13-33.9L297.13-33.9 295.38-33.9 295.38-18.45 297.08-18.45Q299.43-18.45 301.03-20.23 302.63-22 303.28-25L303.28-25 304.03-25 304.03-10.2 303.18-10.2Q302.28-13.95 300.75-15.55 299.23-17.15 296.58-17.15L296.58-17.15 295.38-17.15 295.38-1.1 297.28-1.1Q301.88-1.1 305.1-3.85 308.33-6.6 309.53-10.9L309.53-10.9 310.53-10.9 310.13 0 282.68 0 282.68-1.1 285.63-1.1 285.63-33.9 282.68-33.9ZM339.87-0.95L343.42-0.95 339.77-11.75 329.87-11.75 326.02-0.95 329.77-0.95 329.77 0 322.12 0 322.12-0.95 324.47-0.95 337.22-35.3 341.32-35.3 353.92-0.95 356.22-0.95 356.22 0 339.87 0 339.87-0.95ZM339.37-12.85L335.02-25.95 330.32-12.85 339.37-12.85ZM367.57-10.65Q367.57-6.05 369.14-3.6 370.72-1.15 374.82-1.15 378.92-1.15 381.12-3.7 383.32-6.25 383.32-11.45L383.32-11.45 383.32-34.05 380.07-34.05 380.07-35 387.37-35 387.37-34.05 384.62-34.05 384.62-11.8Q384.62-5.6 381.87-2.55 379.12 0.5 372.14 0.5 365.17 0.5 361.49-2.4 357.82-5.3 357.82-12.35L357.82-12.35 357.82-34.05 355.07-34.05 355.07-35 370.82-35 370.82-34.05 367.57-34.05 367.57-10.65ZM423.87-18.1L423.87-18.1Q423.87-7.8 418.06-3.75L418.06-3.75Q412.72 0 403.37 0L403.37 0 389.22 0 389.22-0.95 392.52-0.95 392.52-34.05 389.22-34.05 389.22-35 404.67-35Q414.27-35 419.06-31.08 423.87-27.15 423.87-18.1ZM402.27-34.05L402.27-0.95 404.17-0.95Q409.22-0.95 411.39-4.53 413.56-8.1 413.56-16.5L413.56-16.5 413.56-19.4Q413.56-30.65 409.27-32.95L409.27-32.95Q407.22-34.05 403.47-34.05L403.47-34.05 402.27-34.05ZM427.16-34.05L427.16-35 442.41-35 442.41-34.05 439.66-34.05 439.66-0.95 442.41-0.95 442.41 0 427.16 0 427.16-0.95 429.91-0.95 429.91-34.05 427.16-34.05ZM445.96-35L475.46-35 475.96-22.45 475.01-22.45Q472.81-29.1 471.11-31.53 469.41-33.95 466.21-33.95L466.21-33.95 465.61-33.95 465.61-1.05 469.86-1.05 469.86 0 451.61 0 451.61-1.05 455.86-1.05 455.86-33.95 455.21-33.95Q452.01-33.95 450.26-31.43 448.51-28.9 446.41-22.45L446.41-22.45 445.46-22.45 445.96-35ZM501.36-15.45L501.36-15.45 501.36-19.15Q501.36-28.3 500.46-30.7L500.46-30.7Q499.46-33.45 497.61-34.1L497.61-34.1Q496.56-34.5 495.06-34.5 493.56-34.5 492.48-34.1 491.41-33.7 490.71-32.7 490.01-31.7 489.58-30.6 489.16-29.5 488.91-27.5L488.91-27.5Q488.61-24.6 488.61-18.95L488.61-18.95 488.61-15.35Q488.61-9.25 489.08-6.68 489.56-4.1 490.26-3L490.26-3Q491.81-0.55 495.06-0.55L495.06-0.55Q499.01-0.55 500.18-3.88 501.36-7.2 501.36-15.45ZM494.96 0.5Q486.61 0.5 482.48-4.03 478.36-8.55 478.36-17.13 478.36-25.7 482.78-30.63 487.21-35.55 495.31-35.55 503.41-35.55 507.53-30.88 511.66-26.2 511.66-17.6 511.66-9 507.48-4.25 503.31 0.5 494.96 0.5ZM530.1-17.7L530.1-17.7 527.45-17.7 527.45-0.95 530.7-0.95 530.7 0 514.45 0 514.45-0.95 517.7-0.95 517.7-34.05 514.45-34.05 514.45-35 529.55-35Q536.05-35 538.78-34.33 541.5-33.65 542.6-32.7L542.6-32.7Q545-30.75 545-26.5 545-22.25 542.9-20.43 540.8-18.6 536.5-18.25L536.5-18.25 536.5-18.1Q540.55-17.55 542.15-15.7 543.75-13.85 543.75-9.5L543.75-9.5 543.75-6.85Q543.75-4.25 544.03-3.35 544.3-2.45 545.2-2.45 546.1-2.45 546.63-3.28 547.15-4.1 547.6-6.75L547.6-6.75 548.45-6.65Q547.9-2.4 546.53-0.95 545.15 0.5 541.05 0.5 536.95 0.5 535.23-1.43 533.5-3.35 533.5-8.65L533.5-8.65 533.5-12.3Q533.5-15.1 532.78-16.4 532.05-17.7 530.1-17.7ZM529.1-34.05L527.45-34.05 527.45-18.65 529.05-18.65Q531.9-18.65 533.28-20.4 534.65-22.15 534.65-26.1L534.65-26.1 534.65-27.55Q534.65-31.5 533.33-32.77 532-34.05 529.1-34.05L529.1-34.05Z" opacity="1" transform="matrix(1,0,0,1,0,0)" fill="#0c1d36" class="wordmark-text-0" data-fill-palette-color="quaternary" id="text-0"/>
                            </svg>
                          </g>
                        </svg>
                      </g>
                    </svg>
                  </g>
                </svg>
              </g>
              <g/>
            </svg>
          </g>
        </svg>
        <rect width="356.12052" height="60.29396895964864" fill="none" stroke="none" visibility="hidden"/>
      </g>
    </svg>
  </g>
</svg>